<?xml version="1.0" encoding="UTF-8"?>
<svg xmlns="http://www.w3.org/2000/svg" xmlns:xlink="http://www.w3.org/1999/xlink" width="16" height="16" viewBox="0 0 16 16" version="1.1">
<g id="surface1">
<path style=" stroke:none;fill-rule:nonzero;fill:rgb(92.54902%,92.54902%,92.54902%);fill-opacity:1;" d="M 6.875 2.046875 L 1.332031 6.503906 L 1.332031 10.941406 L 3.417969 10.941406 C 3.347656 10.613281 3.3125 10.273438 3.3125 9.921875 C 3.3125 7.242188 5.46875 5.066406 8.144531 5.066406 C 10.824219 5.066406 13 7.242188 13 9.921875 C 13 10.269531 12.964844 10.613281 12.894531 10.941406 L 14.667969 10.941406 L 14.667969 5.378906 L 12.4375 3.171875 L 10.207031 5.378906 Z M 6.875 2.046875 "/>
<path style=" stroke:none;fill-rule:nonzero;fill:rgb(92.54902%,92.54902%,92.54902%);fill-opacity:1;" d="M 8.152344 5.894531 C 5.933594 5.894531 4.125 7.707031 4.125 9.925781 C 4.125 11.074219 4.605469 12.121094 5.382812 12.855469 L 6.808594 11.652344 C 6.292969 11.246094 5.933594 10.636719 5.933594 9.925781 C 5.933594 8.691406 6.921875 7.703125 8.152344 7.703125 C 8.429688 7.703125 8.703125 7.75 8.945312 7.839844 L 9.277344 6.085938 C 8.917969 5.980469 8.542969 5.894531 8.152344 5.894531 Z M 10.921875 6.992188 L 9.496094 8.199219 C 10.015625 8.601562 10.371094 9.210938 10.371094 9.925781 C 10.371094 11.15625 9.382812 12.144531 8.152344 12.144531 C 7.875 12.144531 7.601562 12.070312 7.355469 11.980469 L 7.027344 13.789062 C 7.386719 13.894531 7.761719 13.953125 8.152344 13.953125 C 10.371094 13.953125 12.179688 12.140625 12.179688 9.925781 C 12.179688 8.773438 11.699219 7.726562 10.921875 6.992188 Z M 10.921875 6.992188 "/>
</g>
</svg>
