<svg xmlns="http://www.w3.org/2000/svg" width="24" viewBox="0 0 24 24" height="24">
  <path d="M 10.3125,3.0699905 2,9.7574905 2,16.41374 l 3.125,0 C 5.0188389,15.919242 4.96875,15.408706 4.96875,14.88249 c 0,-4.016616 3.2333835,-7.2812495 7.25,-7.2812495 4.016616,0 7.28125,3.2646335 7.28125,7.2812495 0,0.523778 -0.05104,1.038872 -0.15625,1.53125 l 2.65625,0 0,-8.3437495 -3.34375,-3.3125 -3.34375,3.3125 -5,-5 z" fill="#ececec" />
  <path d="m 12.228226,8.8430105 c -3.325658,0 -6.0435,2.7178305 -6.0435,6.0435005 0,1.724575 0.721745,3.293623 1.891156,4.399021 l 2.137834,-1.80895 C 9.436881,16.870944 8.898135,15.957604 8.898135,14.886511 c 0,-1.846971 1.483108,-3.330091 3.330091,-3.330091 0.417607,0 0.824796,0.06685 1.192257,0.205561 L 13.91384,9.1307975 C 13.376617,8.9732568 12.814831,8.8430105 12.228226,8.8430105 z m 4.152344,1.6444885 -2.137834,1.808939 c 0.779265,0.608073 1.315581,1.518982 1.315581,2.590073 0,1.846978 -1.483104,3.330091 -3.330091,3.330091 -0.418201,0 -0.825045,-0.108358 -1.192257,-0.246676 l -0.493357,2.713404 c 0.535455,0.156556 1.101615,0.246679 1.685614,0.246679 3.32566,0 6.0435,-2.717837 6.0435,-6.043498 0,-1.724575 -0.723685,-3.295574 -1.891156,-4.399012 z" fill="#ececec" />
</svg>
