<?xml version="1.0" encoding="UTF-8"?>
<svg xmlns="http://www.w3.org/2000/svg" xmlns:xlink="http://www.w3.org/1999/xlink" width="22" height="22" viewBox="0 0 22 22" version="1.1">
<g id="surface1">
<path style=" stroke:none;fill-rule:nonzero;fill:rgb(92.54902%,92.54902%,92.54902%);fill-opacity:1;" d="M 9.453125 2.8125 L 1.832031 8.945312 L 1.832031 15.046875 L 4.699219 15.046875 C 4.601562 14.59375 4.554688 14.125 4.554688 13.640625 C 4.554688 9.960938 7.519531 6.96875 11.199219 6.96875 C 14.882812 6.96875 17.875 9.960938 17.875 13.640625 C 17.875 14.121094 17.828125 14.59375 17.730469 15.046875 L 20.167969 15.046875 L 20.167969 7.398438 L 17.101562 4.359375 L 14.035156 7.398438 Z M 9.453125 2.8125 "/>
<path style=" stroke:none;fill-rule:nonzero;fill:rgb(92.54902%,92.54902%,92.54902%);fill-opacity:1;" d="M 11.210938 8.105469 C 8.160156 8.105469 5.667969 10.597656 5.667969 13.644531 C 5.667969 15.226562 6.332031 16.664062 7.402344 17.679688 L 9.363281 16.019531 C 8.652344 15.464844 8.15625 14.628906 8.15625 13.644531 C 8.15625 11.953125 9.515625 10.59375 11.210938 10.59375 C 11.59375 10.59375 11.964844 10.65625 12.300781 10.78125 L 12.753906 8.371094 C 12.261719 8.226562 11.746094 8.105469 11.210938 8.105469 Z M 15.015625 9.613281 L 13.054688 11.273438 C 13.769531 11.828125 14.261719 12.664062 14.261719 13.644531 C 14.261719 15.339844 12.902344 16.699219 11.210938 16.699219 C 10.824219 16.699219 10.453125 16.597656 10.117188 16.472656 L 9.664062 18.960938 C 10.15625 19.101562 10.675781 19.1875 11.210938 19.1875 C 14.257812 19.1875 16.75 16.695312 16.75 13.644531 C 16.75 12.066406 16.085938 10.625 15.015625 9.613281 Z M 15.015625 9.613281 "/>
</g>
</svg>
